HIERARCHY
ROOT Hips
{
 OFFSET 0.000000 0.000000 0.000000
 CHANNELS 6 Xposition Yposition Zposition Yrotation Xrotation Zrotation
 JOINT Chest
 {
  OFFSET 0.000000 10.383400 0.001500
  CHANNELS 3 Yrotation Xrotation Zrotation
  JOINT Chest2
  {
   OFFSET 0.000000 10.418200 -0.003100
   CHANNELS 3 Yrotation Xrotation Zrotation
   JOINT Chest3
   {
    OFFSET 0.000000 10.375100 0.000000
    CHANNELS 3 Yrotation Xrotation Zrotation
    JOINT Chest4
    {
     OFFSET 0.000000 10.364600 0.000000
     CHANNELS 3 Yrotation Xrotation Zrotation
     JOINT Neck
     {
      OFFSET 0.000000 15.642200 0.000000
      CHANNELS 3 Yrotation Xrotation Zrotation
      JOINT Head
      {
       OFFSET 0.000000 9.697300 -0.006500
       CHANNELS 3 Yrotation Xrotation Zrotation
       End Site
       {
        OFFSET 0.000000 18.492200 -0.003400
       }
      }
     }
     JOINT RightCollar
     {
      OFFSET -3.166800 10.349300 0.000000
      CHANNELS 3 Yrotation Xrotation Zrotation
      JOINT RightShoulder
      {
       OFFSET -14.729700 0.000000 0.000000
       CHANNELS 3 Yrotation Xrotation Zrotation
       JOINT RightElbow
       {
        OFFSET 0.000000 -32.224300 0.000000
        CHANNELS 3 Yrotation Xrotation Zrotation
        JOINT RightWrist
        {
         OFFSET 0.000000 -26.084100 0.000000
         CHANNELS 3 Yrotation Xrotation Zrotation
         End Site
         {
          OFFSET 0.000000 -19.319400 0.000000
         }
        }
       }
      }
     }
     JOINT LeftCollar
     {
      OFFSET 3.166800 10.349300 0.000000
      CHANNELS 3 Yrotation Xrotation Zrotation
      JOINT LeftShoulder
      {
       OFFSET 14.729700 0.000000 0.000000
       CHANNELS 3 Yrotation Xrotation Zrotation
       JOINT LeftElbow
       {
        OFFSET 0.000000 -32.224300 0.000000
        CHANNELS 3 Yrotation Xrotation Zrotation
        JOINT LeftWrist
        {
         OFFSET 0.000000 -26.084100 0.000000
         CHANNELS 3 Yrotation Xrotation Zrotation
         End Site
         {
          OFFSET 0.000000 -19.319400 0.000000
         }
        }
       }
      }
     }
    }
   }
  }
 }
 JOINT RightHip
 {
  OFFSET -8.428900 -0.007500 -0.000800
  CHANNELS 3 Yrotation Xrotation Zrotation
  JOINT RightKnee
  {
   OFFSET 0.000000 -43.834600 0.000700
   CHANNELS 3 Yrotation Xrotation Zrotation
   JOINT RightAnkle
   {
    OFFSET 0.000000 -42.757000 0.001200
    CHANNELS 3 Yrotation Xrotation Zrotation
    JOINT RightToe
    {
     OFFSET 0.000000 -6.946900 15.649300
     CHANNELS 3 Yrotation Xrotation Zrotation
     End Site
     {
      OFFSET 0.000000 -1.580800 6.825800
     }
    }
   }
  }
 }
 JOINT LeftHip
 {
  OFFSET 8.428900 -0.007500 -0.000800
  CHANNELS 3 Yrotation Xrotation Zrotation
  JOINT LeftKnee
  {
   OFFSET 0.000000 -43.834600 0.000700
   CHANNELS 3 Yrotation Xrotation Zrotation
   JOINT LeftAnkle
   {
    OFFSET 0.000000 -42.757000 0.001200
    CHANNELS 3 Yrotation Xrotation Zrotation
    JOINT LeftToe
    {
     OFFSET 0.000000 -6.946900 15.649300
     CHANNELS 3 Yrotation Xrotation Zrotation
     End Site
     {
      OFFSET 0.000000 -1.580800 6.825800
     }
    }
   }
  }
 }
}
MOTION
Frames: 16
Frame Time: 0.008333
0.000000 93.354300 0.000000 0.000000 -5.767877 0.000000 0.000000 11.653817 0.000000 0.000000 -5.885947 0.000000 0.000000 -0.000000 0.000000 0.000000 -0.000000 0.000000 0.000000 12.528835 0.000000 0.000000 0.711642 0.000000 0.000000 -0.000000 0.000000 0.000000 0.000000 -90.000000 0.000000 -2.309062 0.000000 0.000000 2.309062 0.000000 0.000000 -0.000000 0.000000 0.000000 -0.000000 90.000000 0.000000 -2.309062 0.000000 0.000000 2.309062 0.000000 0.000000 8.520406 0.000000 0.000000 1.905762 0.000000 -0.000000 -4.658285 0.000000 0.000000 -0.000000 0.000000 0.000000 8.520406 0.000000 0.000000 1.905762 0.000000 -0.000000 -4.658285 0.000000 0.000000 -0.000000 0.000000
122.810483 126.880163 37.262499 -14.784107 -27.105984 -0.466480 -1.317623 16.059692 2.066259 -0.161586 1.593038 0.221287 -0.254634 2.669038 0.366276 -1.179661 14.224812 1.841574 1.786648 14.311397 -1.696928 3.990646 -9.096775 -3.847145 -1.728689 -4.437380 -4.832930 6.918520 -14.848468 -3.614025 31.962999 -40.417057 -10.760801 7.958787 9.129307 -15.767312 -1.368830 -6.154930 -3.921116 -4.556233 -6.749936 2.943899 -35.122247 -50.221804 20.108044 -29.775014 9.122056 12.456321 -9.353466 -41.205127 -0.306431 -27.016167 79.003445 -28.621063 3.291688 -10.022789 1.748993 0.002765 -0.006544 0.001227 -1.636438 -33.916583 -6.927869 -5.170402 72.547187 -1.989207 -13.490918 -9.396911 -1.392556 -0.001328 -0.000235 -0.000590
122.810171 126.880094 37.262500 -14.792883 -27.105462 -0.465034 -1.315520 16.057239 2.068291 -0.167109 1.594049 0.221393 -0.246370 2.668663 0.365367 -1.203874 14.214132 1.846399 1.811656 14.319079 -1.713140 4.031710 -9.107940 -3.886049 -1.713384 -4.415848 -4.841457 6.873654 -14.842794 -3.570446 32.036882 -40.421464 -10.811607 7.954342 9.134976 -15.779744 -1.354919 -6.141916 -3.928900 -4.533432 -6.733609 2.959228 -35.127257 -50.251471 20.087411 -29.772615 9.118164 12.458398 -9.350537 -41.203181 -0.304955 -27.005363 78.999502 -28.606017 3.295155 -10.020486 1.744658 0.003969 -0.005550 0.001762 -1.642077 -33.920444 -6.928187 -5.145929 72.549414 -1.960989 -13.497860 -9.396211 -1.394259 -0.001407 -0.001105 -0.000625
122.809835 126.879715 37.261840 -14.803252 -27.100564 -0.464247 -1.316185 16.052384 2.070549 -0.165348 1.595392 0.220736 -0.249107 2.665824 0.366266 -1.209082 14.216027 1.842937 1.828638 14.314763 -1.720013 4.071471 -9.120727 -3.924816 -1.714144 -4.403838 -4.838364 6.876757 -14.851834 -3.566881 32.030700 -40.429393 -10.825979 7.950150 9.126879 -15.786030 -1.345535 -6.137991 -3.927917 -4.510508 -6.725094 2.964406 -35.142141 -50.271294 20.074881 -29.769026 9.111970 12.457938 -9.346752 -41.207759 -0.303220 -27.008973 78.997745 -28.604762 3.304083 -10.017595 1.740910 0.003961 -0.006169 0.001758 -1.648945 -33.928786 -6.932901 -5.143396 72.553093 -1.944960 -13.483983 -9.399644 -1.406662 0.000131 -0.001504 0.000058
122.810265 126.879644 37.262049 -14.806098 -27.099209 -0.461848 -1.335595 16.056556 2.059673 -0.154952 1.593000 0.221560 -0.251052 2.665672 0.369460 -1.218264 14.216510 1.837157 1.848312 14.301380 -1.738915 4.139871 -9.148612 -3.985617 -1.702340 -4.399397 -4.835481 6.849930 -14.856029 -3.553034 32.031342 -40.442888 -10.845567 7.983193 9.127397 -15.756394 -1.326160 -6.138525 -3.927099 -4.491860 -6.712323 2.969036 -35.160563 -50.289165 20.074196 -29.765622 9.097133 12.448766 -9.358552 -41.206914 -0.304536 -26.962859 78.998226 -28.565226 3.310574 -10.018681 1.739588 0.000268 -0.005395 0.000119 -1.658269 -33.933406 -6.939266 -5.110159 72.554615 -1.908512 -13.481399 -9.399938 -1.415619 0.000370 -0.001994 0.000164
122.810180 126.879509 37.261979 -14.808555 -27.096796 -0.463036 -1.344919 16.056608 2.056440 -0.157933 1.593792 0.220108 -0.246442 2.664683 0.367415 -1.227351 14.218456 1.838694 1.862587 14.290499 -1.754537 4.172597 -9.162512 -4.010825 -1.691915 -4.395239 -4.833053 6.822449 -14.862809 -3.543063 32.050367 -40.450867 -10.853460 7.996150 9.129004 -15.746444 -1.319727 -6.137052 -3.917415 -4.466925 -6.706646 2.963117 -35.172874 -50.305110 20.066247 -29.764754 9.095353 12.450243 -9.362963 -41.207723 -0.302607 -26.952984 78.997611 -28.557227 3.315160 -10.018646 1.742403 -0.001217 -0.005624 -0.000540 -1.667643 -33.940507 -6.939294 -5.080698 72.557412 -1.875723 -13.493913 -9.397042 -1.414437 -0.000643 -0.001757 -0.000285
122.809809 126.879519 37.262045 -14.816405 -27.095736 -0.463408 -1.351389 16.057760 2.055104 -0.158732 1.594029 0.220199 -0.262357 2.668250 0.366206 -1.219567 14.215771 1.839046 1.876239 14.281657 -1.767093 4.192704 -9.166680 -4.023688 -1.703278 -4.379962 -4.832127 6.834332 -14.880265 -3.543016 32.063191 -40.457346 -10.856899 7.991172 9.123014 -15.750908 -1.311487 -6.134348 -3.917953 -4.449389 -6.708279 2.961385 -35.164300 -50.313494 20.048969 -29.771567 9.089108 12.446658 -9.363877 -41.207420 -0.299420 -26.964366 78.995812 -28.567392 3.320365 -10.018895 1.748838 -0.001547 -0.005592 -0.000687 -1.671380 -33.945983 -6.941700 -5.038006 72.563549 -1.835218 -13.478684 -9.392405 -1.403356 -0.000817 -0.001067 -0.000363
122.808867 126.879321 37.261480 -14.826089 -27.092123 -0.467259 -1.347947 16.055415 2.061025 -0.167013 1.594726 0.219531 -0.263656 2.668119 0.366253 -1.214443 14.215198 1.839502 1.877282 14.273326 -1.776253 4.213245 -9.170273 -4.037167 -1.696305 -4.378304 -4.835265 6.831342 -14.881660 -3.541182 32.061050 -40.461642 -10.858841 7.989981 9.120422 -15.757622 -1.325753 -6.122158 -3.914199 -4.418703 -6.710401 2.969258 -35.153286 -50.332588 20.022720 -29.774037 9.082113 12.442074 -9.368523 -41.209449 -0.290804 -26.958472 78.992156 -28.552917 3.325891 -10.015247 1.738587 0.001771 -0.006297 0.000786 -1.674589 -33.952858 -6.940726 -5.009755 72.568425 -1.798083 -13.469078 -9.394986 -1.412156 -0.001221 -0.000660 -0.000542
122.808539 126.879260 37.261277 -14.831869 -27.090238 -0.469561 -1.348299 16.055442 2.063865 -0.174462 1.593628 0.217711 -0.264885 2.667986 0.366104 -1.209714 14.215675 1.841497 1.876472 14.265096 -1.786190 4.242886 -9.184352 -4.063152 -1.700301 -4.371781 -4.837751 6.823555 -14.890073 -3.536289 32.073715 -40.471247 -10.860559 7.989449 9.122193 -15.760305 -1.322228 -6.116998 -3.916419 -4.413944 -6.698636 2.979398 -35.144805 -50.354563 20.006011 -29.771821 9.061301 12.446945 -9.370955 -41.210545 -0.285131 -26.953110 78.990717 -28.544664 3.328209 -10.013882 1.734849 0.003313 -0.006890 0.001471 -1.677328 -33.957263 -6.947374 -4.969051 72.571183 -1.741983 -13.465040 -9.397322 -1.426033 -0.000593 -0.000202 -0.000263
122.808482 126.879319 37.261289 -14.834748 -27.090001 -0.471921 -1.361764 16.055702 2.060891 -0.169252 1.594016 0.216421 -0.262761 2.667576 0.366885 -1.238539 14.215330 1.836885 1.903324 14.259941 -1.795796 4.263568 -9.196175 -4.084625 -1.692497 -4.360672 -4.834517 6.811911 -14.888631 -3.532121 32.104185 -40.486927 -10.874092 7.986584 9.119330 -15.755840 -1.286833 -6.113508 -3.919159 -4.413190 -6.697729 2.980987 -35.134364 -50.364181 19.985544 -29.776947 9.068111 12.456441 -9.375238 -41.210482 -0.279846 -26.944682 78.990480 -28.536056 3.320650 -10.013241 1.741339 0.002459 -0.007678 0.001092 -1.682343 -33.959838 -6.951733 -4.930257 72.574908 -1.702619 -13.444010 -9.398958 -1.422530 -0.000678 0.000004 -0.000301
122.808031 126.879399 37.261119 -14.837629 -27.090280 -0.476983 -1.364847 16.056016 2.061642 -0.166930 1.594770 0.218360 -0.260048 2.667165 0.367761 -1.255467 14.218759 1.833987 1.913150 14.251874 -1.803730 4.283260 -9.209202 -4.102152 -1.685170 -4.358124 -4.834520 6.814690 -14.891649 -3.531046 32.093928 -40.490933 -10.874132 7.981537 9.116449 -15.743749 -1.273384 -6.109361 -3.923664 -4.413066 -6.696117 2.990216 -35.135327 -50.378347 19.975721 -29.781118 9.055030 12.453816 -9.388911 -41.210232 -0.272513 -26.909079 78.991966 -28.500524 3.324560 -10.009561 1.737225 0.000901 -0.008644 0.000400 -1.690644 -33.962458 -6.952581 -4.900332 72.579315 -1.664683 -13.433698 -9.402718 -1.429198 -0.000203 0.000121 -0.000090
122.807782 126.879597 37.261151 -14.838029 -27.092392 -0.481846 -1.374570 16.060143 2.059885 -0.161576 1.594233 0.220280 -0.266822 2.668544 0.366345 -1.252147 14.223588 1.832850 1.919056 14.243018 -1.806166 4.292696 -9.226571 -4.121988 -1.679194 -4.362733 -4.832983 6.811126 -14.891026 -3.529962 32.077705 -40.498489 -10.875601 8.000215 9.115537 -15.728434 -1.282153 -6.106508 -3.928533 -4.411409 -6.697777 2.999045 -35.130997 -50.387231 19.973363 -29.787386 9.042757 12.456817 -9.397732 -41.208762 -0.269805 -26.901015 78.993584 -28.488017 3.331182 -10.008238 1.732339 0.000742 -0.009454 0.000330 -1.700811 -33.962689 -6.954590 -4.883334 72.578842 -1.632941 -13.436563 -9.402737 -1.440355 0.001267 0.000482 0.000562
122.807887 126.879883 37.261402 -14.835702 -27.096007 -0.485365 -1.380988 16.065660 2.055462 -0.161246 1.597731 0.216174 -0.267756 2.671853 0.366493 -1.247063 14.223412 1.836343 1.920368 14.233516 -1.805237 4.299188 -9.246394 -4.140006 -1.682641 -4.361669 -4.831789 6.793076 -14.895072 -3.537299 32.087022 -40.514168 -10.861948 7.992460 9.114219 -15.730981 -1.286224 -6.112068 -3.928069 -4.416937 -6.688468 3.004224 -35.142702 -50.401408 19.984522 -29.782313 9.053040 12.461751 -9.410641 -41.206503 -0.267093 -26.896504 78.994033 -28.483112 3.335362 -10.004079 1.732622 -0.000064 -0.009838 -0.000028 -1.709915 -33.961192 -6.953766 -4.871615 72.577720 -1.614691 -13.449234 -9.399946 -1.444016 0.001100 0.001103 0.000488
122.807662 126.880071 37.261336 -14.831870 -27.098729 -0.491002 -1.383990 16.070245 2.056020 -0.157013 1.598113 0.212606 -0.267719 2.673352 0.366088 -1.248326 14.224887 1.837778 1.917295 14.227250 -1.805784 4.287504 -9.283265 -4.151285 -1.689082 -4.361223 -4.829001 6.794819 -14.899932 -3.537435 32.076467 -40.514299 -10.851801 7.994510 9.113170 -15.731130 -1.310968 -6.112654 -3.946065 -4.413917 -6.669544 3.028576 -35.162311 -50.428980 20.009880 -29.784014 9.063164 12.465012 -9.418534 -41.203215 -0.262942 -26.903633 78.989739 -28.485670 3.337236 -10.000911 1.734260 0.001246 -0.010107 0.000553 -1.717652 -33.959949 -6.951431 -4.863145 72.577703 -1.601020 -13.453585 -9.398715 -1.447400 0.001574 0.001765 0.000699
122.807445 126.880189 37.261136 -14.829669 -27.100822 -0.495052 -1.379425 16.072626 2.053156 -0.158750 1.599735 0.213928 -0.265948 2.675647 0.363727 -1.250707 14.222060 1.844518 1.907922 14.223130 -1.825822 4.278100 -9.299301 -4.132810 -1.689400 -4.354231 -4.841170 6.789207 -14.908641 -3.527643 32.069564 -40.515623 -10.851716 7.994997 9.122258 -15.714262 -1.318273 -6.111245 -3.953012 -4.413260 -6.658868 3.035304 -35.178017 -50.444658 20.026624 -29.790057 9.065438 12.461952 -9.425920 -41.200025 -0.262028 -26.884971 78.990149 -28.458367 3.337532 -10.001363 1.728208 0.003749 -0.008712 0.001664 -1.727066 -33.959820 -6.950438 -4.840842 72.579566 -1.577553 -13.451572 -9.398960 -1.451317 0.000927 0.001370 0.000412
122.807905 126.880143 37.260806 -14.830813 -27.101071 -0.493182 -1.370939 16.078204 2.041819 -0.164652 1.594978 0.223907 -0.264326 2.677240 0.361695 -1.246404 14.228701 1.832586 1.902055 14.212783 -1.819455 4.259627 -9.314140 -4.120286 -1.697172 -4.360884 -4.827156 6.787602 -14.906434 -3.551452 32.051806 -40.531615 -10.826520 7.997410 9.130416 -15.704257 -1.327160 -6.118873 -3.937934 -4.412206 -6.645503 3.034323 -35.192243 -50.455495 20.044580 -29.794811 9.060356 12.463930 -9.433834 -41.205167 -0.264569 -26.863578 78.997165 -28.436971 3.343860 -9.998558 1.725443 0.003184 -0.010346 0.001413 -1.731823 -33.959507 -6.951758 -4.825505 72.578328 -1.564055 -13.450451 -9.399517 -1.454394 0.001062 0.001926 0.000471
